<svg width="841" height="452" viewBox="0 0 841 452" fill="none" xmlns="http://www.w3.org/2000/svg">
<path d="M302.94 72.07C301.89 72.07 301.005 71.725 300.285 71.035C299.565 70.345 299.205 69.475 299.205 68.425C299.205 67.405 299.565 66.55 300.285 65.86C301.005 65.14 301.89 64.78 302.94 64.78C303.96 64.78 304.83 65.14 305.55 65.86C306.27 66.55 306.63 67.405 306.63 68.425C306.63 69.475 306.27 70.345 305.55 71.035C304.83 71.725 303.96 72.07 302.94 72.07ZM297.225 107.395C295.545 107.395 294.195 107.17 293.175 106.72V101.275C293.955 101.665 294.93 101.86 296.1 101.86C297.24 101.86 298.095 101.575 298.665 101.005C299.235 100.435 299.52 99.535 299.52 98.305V75.4H306.315V99.07C306.315 101.83 305.49 103.9 303.84 105.28C302.19 106.69 299.985 107.395 297.225 107.395ZM323.442 97.675C320.832 97.675 318.537 97.21 316.557 96.28C314.607 95.32 313.092 93.985 312.012 92.275C310.962 90.535 310.437 88.51 310.437 86.2C310.437 83.95 310.962 81.955 312.012 80.215C313.092 78.475 314.607 77.125 316.557 76.165C318.537 75.205 320.832 74.725 323.442 74.725C326.022 74.725 328.287 75.205 330.237 76.165C332.217 77.125 333.732 78.475 334.782 80.215C335.862 81.955 336.402 83.95 336.402 86.2C336.402 88.51 335.862 90.535 334.782 92.275C333.732 93.985 332.232 95.32 330.282 96.28C328.332 97.21 326.052 97.675 323.442 97.675ZM323.442 92.365C325.272 92.365 326.727 91.81 327.807 90.7C328.887 89.56 329.427 88.06 329.427 86.2C329.427 84.28 328.887 82.78 327.807 81.7C326.757 80.59 325.302 80.035 323.442 80.035C321.582 80.035 320.112 80.59 319.032 81.7C317.952 82.78 317.412 84.28 317.412 86.2C317.412 88.06 317.952 89.56 319.032 90.7C320.142 91.81 321.612 92.365 323.442 92.365ZM347.122 97.675C344.482 97.675 342.322 97.015 340.642 95.695C338.992 94.345 338.167 92.515 338.167 90.205C338.167 87.805 338.962 85.945 340.552 84.625C342.142 83.275 344.392 82.6 347.302 82.6C348.592 82.6 349.822 82.735 350.992 83.005C352.162 83.275 353.197 83.65 354.097 84.13V83.59C354.097 82.24 353.617 81.25 352.657 80.62C351.697 79.99 350.227 79.675 348.247 79.675C345.607 79.675 343.177 80.17 340.957 81.16V76.21C341.917 75.79 343.162 75.445 344.692 75.175C346.222 74.875 347.752 74.725 349.282 74.725C353.182 74.725 356.092 75.535 358.012 77.155C359.932 78.745 360.892 80.98 360.892 83.86V97H354.502V95.02C352.672 96.79 350.212 97.675 347.122 97.675ZM348.967 93.175C350.077 93.175 351.082 92.965 351.982 92.545C352.882 92.125 353.587 91.54 354.097 90.79V88.63C352.567 87.61 350.887 87.1 349.057 87.1C347.797 87.1 346.822 87.37 346.132 87.91C345.472 88.42 345.142 89.185 345.142 90.205C345.142 91.165 345.472 91.9 346.132 92.41C346.792 92.92 347.737 93.175 348.967 93.175ZM376.352 97.675C373.742 97.675 371.447 97.21 369.467 96.28C367.517 95.32 366.002 93.985 364.922 92.275C363.872 90.535 363.347 88.51 363.347 86.2C363.347 83.95 363.872 81.955 364.922 80.215C366.002 78.475 367.517 77.125 369.467 76.165C371.447 75.205 373.742 74.725 376.352 74.725C378.932 74.725 381.197 75.205 383.147 76.165C385.127 77.125 386.642 78.475 387.692 80.215C388.772 81.955 389.312 83.95 389.312 86.2C389.312 88.51 388.772 90.535 387.692 92.275C386.642 93.985 385.142 95.32 383.192 96.28C381.242 97.21 378.962 97.675 376.352 97.675ZM376.352 92.365C378.182 92.365 379.637 91.81 380.717 90.7C381.797 89.56 382.337 88.06 382.337 86.2C382.337 84.28 381.797 82.78 380.717 81.7C379.667 80.59 378.212 80.035 376.352 80.035C374.492 80.035 373.022 80.59 371.942 81.7C370.862 82.78 370.322 84.28 370.322 86.2C370.322 88.06 370.862 89.56 371.942 90.7C373.052 91.81 374.522 92.365 376.352 92.365ZM408.312 75.4H414.027L419.877 90.34L425.727 75.4H431.442L422.532 97H417.222L408.312 75.4ZM439.877 72.07C438.827 72.07 437.942 71.725 437.222 71.035C436.502 70.345 436.142 69.475 436.142 68.425C436.142 67.405 436.502 66.55 437.222 65.86C437.942 65.14 438.827 64.78 439.877 64.78C440.927 64.78 441.812 65.14 442.532 65.86C443.252 66.55 443.612 67.405 443.612 68.425C443.612 69.475 443.252 70.345 442.532 71.035C441.812 71.725 440.927 72.07 439.877 72.07ZM436.457 75.4H443.297V97H436.457V75.4ZM457.316 97.675C454.796 97.675 452.876 96.985 451.556 95.605C450.266 94.195 449.621 92.245 449.621 89.755V80.305H446.471V75.4H449.621V68.92H456.416V75.4H461.501V80.305H456.416V88.855C456.416 90.115 456.656 91.03 457.136 91.6C457.616 92.14 458.471 92.41 459.701 92.41C460.691 92.41 461.636 92.17 462.536 91.69V96.775C461.156 97.375 459.416 97.675 457.316 97.675ZM477.558 97.675C474.948 97.675 472.653 97.21 470.673 96.28C468.723 95.32 467.208 93.985 466.128 92.275C465.078 90.535 464.553 88.51 464.553 86.2C464.553 83.95 465.078 81.955 466.128 80.215C467.208 78.475 468.723 77.125 470.673 76.165C472.653 75.205 474.948 74.725 477.558 74.725C480.138 74.725 482.403 75.205 484.353 76.165C486.333 77.125 487.848 78.475 488.898 80.215C489.978 81.955 490.518 83.95 490.518 86.2C490.518 88.51 489.978 90.535 488.898 92.275C487.848 93.985 486.348 95.32 484.398 96.28C482.448 97.21 480.168 97.675 477.558 97.675ZM477.558 92.365C479.388 92.365 480.843 91.81 481.923 90.7C483.003 89.56 483.543 88.06 483.543 86.2C483.543 84.28 483.003 82.78 481.923 81.7C480.873 80.59 479.418 80.035 477.558 80.035C475.698 80.035 474.228 80.59 473.148 81.7C472.068 82.78 471.528 84.28 471.528 86.2C471.528 88.06 472.068 89.56 473.148 90.7C474.258 91.81 475.728 92.365 477.558 92.365ZM494.325 75.4H500.895V78.505C501.765 77.455 502.98 76.66 504.54 76.12C506.1 75.55 507.87 75.265 509.85 75.265V80.44C507.78 80.44 505.95 80.755 504.36 81.385C502.8 82.015 501.72 82.975 501.12 84.265V97H494.325V75.4Z" fill="black"/>
<path d="M26 48C26 39.1634 33.1634 32 42 32H735C743.837 32 751 39.1634 751 48V64H26V48Z" fill="#014EF6"/>
<rect x="26" y="64" width="725" height="388" fill="#0C112B"/>
<circle cx="54" cy="48" r="5" fill="#FE534D"/>
<circle cx="74" cy="48" r="5" fill="#FFB627"/>
<circle cx="94" cy="48" r="5" fill="#24C439"/>
<rect x="272" y="39" width="234" height="17" rx="3" fill="#2B6DF7"/>
<rect x="41" y="74" width="94" height="353" rx="5" fill="#131A35" fill-opacity="0.9"/>
<rect x="159" y="119" width="561" height="48" rx="5" fill="#141B35"/>
<rect x="231" y="131" width="224" height="9" rx="4.5" fill="#1D2645"/>
<rect x="231" y="144" width="131" height="9" rx="4.5" fill="#1D2645"/>
<rect x="280" y="179" width="561" height="48" rx="5" fill="#141B35"/>
<rect x="343" y="191" width="224" height="9" rx="4.5" fill="#1D2645"/>
<rect x="343" y="204" width="131" height="9" rx="4.5" fill="#1D2645"/>
<rect x="159" y="247" width="561" height="48" rx="5" fill="#141B35"/>
<rect x="231" y="259" width="224" height="9" rx="4.5" fill="#1D2645"/>
<rect x="231" y="272" width="131" height="9" rx="4.5" fill="#1D2645"/>
<rect x="633" y="125" width="79" height="34" rx="5" fill="#283153"/>
<rect x="751" y="186" width="79" height="34" rx="5" fill="#014EF6"/>
<rect x="633" y="254" width="79" height="34" rx="5" fill="#283153"/>
<rect x="648" y="139" width="49" height="7" rx="3.5" fill="#3C456A"/>
<rect x="648" y="267" width="49" height="7" rx="3.5" fill="#3C456A"/>
<rect x="159" y="379" width="561" height="48" rx="5" fill="#141B35"/>
<rect x="633" y="386" width="79" height="34" rx="5" fill="#283153"/>
<rect x="648" y="399" width="49" height="7" rx="3.5" fill="#3C456A"/>
<rect x="231" y="391" width="224" height="9" rx="4.5" fill="#1D2645"/>
<rect x="231" y="404" width="131" height="9" rx="4.5" fill="#1D2645"/>
<rect x="159" y="313" width="561" height="48" rx="5" fill="#141B35"/>
<rect x="633" y="320" width="79" height="34" rx="5" fill="#283153"/>
<rect x="648" y="333" width="49" height="7" rx="3.5" fill="#3C456A"/>
<rect x="231" y="325" width="224" height="9" rx="4.5" fill="#1D2645"/>
<rect x="231" y="338" width="131" height="9" rx="4.5" fill="#1D2645"/>
<rect x="766" y="200" width="49" height="7" rx="3.5" fill="#5D93FF"/>
<rect y="131" width="81" height="79" rx="5" fill="#014EF6"/>
<rect x="653" y="73" width="34" height="34" rx="5" fill="#161D3C"/>
<rect x="703" y="73" width="34" height="34" rx="5" fill="#161D3C"/>
<rect x="603" y="73" width="34" height="34" rx="5" fill="#161D3C"/>
<circle cx="87" cy="245" r="10" fill="#151D36"/>
<circle cx="87" cy="283" r="10" fill="#151D36"/>
<circle cx="87" cy="321" r="10" fill="#151D36"/>
<circle cx="87" cy="359" r="10" fill="#151D36"/>
<circle cx="88" cy="397" r="10" fill="#151D36"/>
<rect x="161.5" y="75.5" width="399" height="31" rx="4.5" stroke="#131B37"/>
<path d="M368.819 46.544H368.18V45.68H368.819V44.933C368.819 44.411 368.987 44.009 369.323 43.727C369.665 43.445 370.094 43.304 370.61 43.304C370.898 43.304 371.15 43.346 371.366 43.43V44.348C371.204 44.276 371.027 44.24 370.835 44.24C370.559 44.24 370.343 44.306 370.187 44.438C370.031 44.57 369.953 44.762 369.953 45.014V45.68H371.861V43.637H372.995V50H371.861V46.544H369.953V50H368.819V46.544ZM376.426 50.135C375.922 50.135 375.478 50.045 375.094 49.865C374.716 49.679 374.422 49.415 374.212 49.073C374.002 48.725 373.897 48.314 373.897 47.84C373.897 47.378 373.999 46.976 374.203 46.634C374.413 46.286 374.71 46.019 375.094 45.833C375.478 45.641 375.922 45.545 376.426 45.545C376.93 45.545 377.371 45.641 377.749 45.833C378.133 46.019 378.43 46.286 378.64 46.634C378.85 46.976 378.955 47.378 378.955 47.84C378.955 48.314 378.85 48.725 378.64 49.073C378.43 49.415 378.133 49.679 377.749 49.865C377.371 50.045 376.93 50.135 376.426 50.135ZM376.426 49.244C376.84 49.244 377.17 49.115 377.416 48.857C377.662 48.593 377.785 48.254 377.785 47.84C377.785 47.402 377.662 47.06 377.416 46.814C377.176 46.562 376.846 46.436 376.426 46.436C376.006 46.436 375.673 46.562 375.427 46.814C375.187 47.06 375.067 47.402 375.067 47.84C375.067 48.254 375.19 48.593 375.436 48.857C375.682 49.115 376.012 49.244 376.426 49.244ZM379.083 45.68H380.217L381.099 48.605L381.963 45.68H382.953L383.817 48.605L384.699 45.68H385.833L384.42 50H383.376L382.458 47.066L381.54 50H380.496L379.083 45.68ZM387.012 50C386.886 50 386.778 49.958 386.688 49.874C386.598 49.784 386.553 49.676 386.553 49.55C386.553 49.418 386.598 49.307 386.688 49.217C386.778 49.127 386.886 49.082 387.012 49.082C387.138 49.082 387.246 49.127 387.336 49.217C387.426 49.307 387.471 49.418 387.471 49.55C387.471 49.676 387.426 49.784 387.336 49.874C387.246 49.958 387.138 50 387.012 50ZM390.465 50.135C390.027 50.135 389.634 50.042 389.286 49.856C388.944 49.664 388.674 49.397 388.476 49.055C388.284 48.707 388.188 48.305 388.188 47.849C388.188 47.399 388.284 47 388.476 46.652C388.674 46.304 388.944 46.034 389.286 45.842C389.634 45.644 390.027 45.545 390.465 45.545C391.173 45.545 391.731 45.731 392.139 46.103V43.349H393.273V50H392.175V49.496C391.929 49.724 391.674 49.889 391.41 49.991C391.146 50.087 390.831 50.135 390.465 50.135ZM390.744 49.244C391.068 49.244 391.356 49.157 391.608 48.983C391.86 48.809 392.037 48.575 392.139 48.281V47.408C392.043 47.114 391.866 46.88 391.608 46.706C391.356 46.526 391.068 46.436 390.744 46.436C390.336 46.436 390 46.568 389.736 46.832C389.472 47.096 389.34 47.435 389.34 47.849C389.34 48.263 389.472 48.599 389.736 48.857C390 49.115 390.336 49.244 390.744 49.244ZM396.783 50.135C395.979 50.135 395.343 49.934 394.875 49.532C394.407 49.13 394.173 48.569 394.173 47.849C394.173 47.141 394.38 46.58 394.794 46.166C395.208 45.752 395.799 45.545 396.567 45.545C397.071 45.545 397.5 45.641 397.854 45.833C398.214 46.025 398.484 46.289 398.664 46.625C398.844 46.955 398.934 47.333 398.934 47.759V48.281H395.253C395.331 48.923 395.889 49.244 396.927 49.244C397.203 49.244 397.485 49.22 397.773 49.172C398.061 49.124 398.313 49.058 398.529 48.974V49.847C398.325 49.931 398.061 50 397.737 50.054C397.419 50.108 397.101 50.135 396.783 50.135ZM397.863 47.507C397.851 47.165 397.728 46.901 397.494 46.715C397.266 46.529 396.951 46.436 396.549 46.436C396.153 46.436 395.841 46.532 395.613 46.724C395.385 46.916 395.265 47.177 395.253 47.507H397.863ZM399.298 45.68H400.441L401.611 48.668L402.781 45.68H403.924L402.142 50H401.08L399.298 45.68ZM405.1 50C404.974 50 404.866 49.958 404.776 49.874C404.686 49.784 404.641 49.676 404.641 49.55C404.641 49.418 404.686 49.307 404.776 49.217C404.866 49.127 404.974 49.082 405.1 49.082C405.226 49.082 405.334 49.127 405.424 49.217C405.514 49.307 405.559 49.418 405.559 49.55C405.559 49.676 405.514 49.784 405.424 49.874C405.334 49.958 405.226 50 405.1 50ZM409.264 50.135C408.898 50.135 408.583 50.087 408.319 49.991C408.055 49.889 407.8 49.724 407.554 49.496V50H406.456V43.349H407.59V46.103C407.794 45.917 408.04 45.779 408.328 45.689C408.622 45.593 408.934 45.545 409.264 45.545C409.702 45.545 410.092 45.644 410.434 45.842C410.782 46.034 411.052 46.304 411.244 46.652C411.442 47 411.541 47.399 411.541 47.849C411.541 48.305 411.442 48.707 411.244 49.055C411.052 49.397 410.782 49.664 410.434 49.856C410.092 50.042 409.702 50.135 409.264 50.135ZM408.985 49.244C409.393 49.244 409.729 49.115 409.993 48.857C410.257 48.599 410.389 48.263 410.389 47.849C410.389 47.435 410.257 47.096 409.993 46.832C409.729 46.568 409.393 46.436 408.985 46.436C408.661 46.436 408.37 46.526 408.112 46.706C407.86 46.88 407.686 47.114 407.59 47.408V48.281C407.692 48.575 407.869 48.809 408.121 48.983C408.373 49.157 408.661 49.244 408.985 49.244ZM412.441 45.68H413.539V46.373C413.713 46.139 413.959 45.965 414.277 45.851C414.601 45.737 414.97 45.68 415.384 45.68V46.544C414.946 46.544 414.565 46.613 414.241 46.751C413.923 46.883 413.701 47.093 413.575 47.381V50H412.441V45.68Z" fill="white"/>
<path fill-rule="evenodd" clip-rule="evenodd" d="M723.909 42H716.273C715.673 42 715.182 42.4909 715.182 43.0909V50.7272C715.182 51.3272 715.673 51.8181 716.273 51.8181H723.909C724.509 51.8181 725 51.3272 725 50.7272V43.0909C725 42.4909 724.509 42 723.909 42ZM714.091 44.182H713V52.9092C713 53.5092 713.491 54.0001 714.091 54.0001H722.818V52.9092H714.091V44.182ZM716.273 50.7269H723.909V43.0906H716.273V50.7269Z" fill="white"/>
<path d="M80.0002 102.4V86.0434H83.6114V102.4H80.0002Z" fill="white"/>
<path d="M80 102.399H100.068V106.06H83.6603C81.6388 106.06 80 104.421 80 102.399Z" fill="white"/>
<path d="M204.406 96.195C203.851 96.195 203.301 96.143 202.755 96.039C202.209 95.935 201.763 95.7963 201.416 95.623V93.881C201.875 94.1063 202.352 94.2753 202.846 94.388C203.34 94.5007 203.812 94.557 204.263 94.557C204.766 94.557 205.147 94.4703 205.407 94.297C205.667 94.1237 205.797 93.881 205.797 93.569C205.797 93.3437 205.732 93.153 205.602 92.997C205.472 92.841 205.281 92.7023 205.03 92.581C204.787 92.451 204.41 92.282 203.899 92.074C203.05 91.7273 202.434 91.3417 202.053 90.917C201.672 90.4837 201.481 89.9507 201.481 89.318C201.481 88.8067 201.62 88.356 201.897 87.966C202.174 87.5673 202.564 87.2597 203.067 87.043C203.57 86.8263 204.15 86.718 204.809 86.718C205.346 86.718 205.823 86.7613 206.239 86.848C206.655 86.9347 207.062 87.069 207.461 87.251V88.941C206.698 88.5597 205.936 88.369 205.173 88.369C204.688 88.369 204.306 88.4557 204.029 88.629C203.752 88.7937 203.613 89.032 203.613 89.344C203.613 89.5693 203.678 89.7557 203.808 89.903C203.938 90.0503 204.12 90.1803 204.354 90.293C204.588 90.4057 204.969 90.5703 205.498 90.787C206.113 91.047 206.594 91.2983 206.941 91.541C207.288 91.775 207.543 92.0567 207.708 92.386C207.873 92.7067 207.955 93.1053 207.955 93.582C207.955 94.4053 207.656 95.0467 207.058 95.506C206.469 95.9653 205.585 96.195 204.406 96.195ZM212.653 96.195C211.457 96.195 210.516 95.909 209.832 95.337C209.147 94.7563 208.805 93.946 208.805 92.906C208.805 91.8747 209.108 91.06 209.715 90.462C210.33 89.864 211.205 89.565 212.341 89.565C213.086 89.565 213.719 89.7037 214.239 89.981C214.759 90.2583 215.153 90.644 215.422 91.138C215.69 91.6233 215.825 92.1737 215.825 92.789V93.582H210.677C210.815 94.3793 211.561 94.778 212.913 94.778C213.311 94.778 213.723 94.7433 214.148 94.674C214.572 94.6047 214.941 94.5093 215.253 94.388V95.766C214.949 95.896 214.559 96 214.083 96.078C213.606 96.156 213.129 96.195 212.653 96.195ZM213.966 92.308C213.94 91.892 213.784 91.5713 213.498 91.346C213.212 91.112 212.817 90.995 212.315 90.995C211.821 90.995 211.431 91.112 211.145 91.346C210.859 91.58 210.703 91.9007 210.677 92.308H213.966ZM219.237 96.195C218.475 96.195 217.851 96.0043 217.365 95.623C216.889 95.233 216.65 94.7043 216.65 94.037C216.65 93.3437 216.88 92.8063 217.339 92.425C217.799 92.035 218.449 91.84 219.289 91.84C219.662 91.84 220.017 91.879 220.355 91.957C220.693 92.035 220.992 92.1433 221.252 92.282V92.126C221.252 91.736 221.114 91.45 220.836 91.268C220.559 91.086 220.134 90.995 219.562 90.995C218.8 90.995 218.098 91.138 217.456 91.424V89.994C217.734 89.8727 218.093 89.773 218.535 89.695C218.977 89.6083 219.419 89.565 219.861 89.565C220.988 89.565 221.829 89.799 222.383 90.267C222.938 90.7263 223.215 91.372 223.215 92.204V96H221.369V95.428C220.841 95.9393 220.13 96.195 219.237 96.195ZM219.77 94.895C220.091 94.895 220.381 94.8343 220.641 94.713C220.901 94.5917 221.105 94.4227 221.252 94.206V93.582C220.81 93.2873 220.325 93.14 219.796 93.14C219.432 93.14 219.151 93.218 218.951 93.374C218.761 93.5213 218.665 93.7423 218.665 94.037C218.665 94.3143 218.761 94.5267 218.951 94.674C219.142 94.8213 219.415 94.895 219.77 94.895ZM224.515 89.76H226.413V90.657C226.664 90.3537 227.015 90.124 227.466 89.968C227.917 89.8033 228.428 89.721 229 89.721V91.216C228.402 91.216 227.873 91.307 227.414 91.489C226.963 91.671 226.651 91.9483 226.478 92.321V96H224.515V89.76ZM233.203 96.195C232.076 96.195 231.179 95.909 230.512 95.337C229.844 94.7563 229.511 93.9417 229.511 92.893C229.511 91.8443 229.844 91.0297 230.512 90.449C231.188 89.8597 232.089 89.565 233.216 89.565C234.238 89.565 235.053 89.7557 235.66 90.137V91.684C235.382 91.4847 235.057 91.3373 234.685 91.242C234.321 91.1467 233.935 91.099 233.528 91.099C232.921 91.099 232.436 91.2463 232.072 91.541C231.708 91.8357 231.526 92.2863 231.526 92.893C231.526 93.4997 231.703 93.9503 232.059 94.245C232.423 94.531 232.908 94.674 233.515 94.674C234.355 94.674 235.096 94.4703 235.738 94.063V95.597C235.096 95.9957 234.251 96.195 233.203 96.195ZM236.829 86.393H238.792V90.475C239.087 90.1717 239.421 89.9463 239.793 89.799C240.166 89.643 240.565 89.565 240.989 89.565C241.839 89.565 242.471 89.7947 242.887 90.254C243.312 90.7047 243.524 91.3157 243.524 92.087V96H241.561V92.308C241.561 91.502 241.189 91.099 240.443 91.099C240.114 91.099 239.806 91.1813 239.52 91.346C239.234 91.502 238.992 91.736 238.792 92.048V96H236.829V86.393Z" fill="#1A254C"/>
<path d="M94.133 90.041C95.1438 90.041 95.9631 90.8604 95.9631 91.8712L95.9631 110.109L92.3029 110.109L92.3029 91.8712C92.3029 90.8604 93.1222 90.041 94.133 90.041Z" fill="white"/>
<path d="M95.962 91.8642C95.962 92.875 95.1427 93.6943 94.1319 93.6943L75.8936 93.6943L75.8936 90.0341L94.1319 90.0341C95.1427 90.0341 95.962 90.8534 95.962 91.8642Z" fill="white"/>
<path d="M623.333 95.8335L623.333 84.1668L614.167 90.0002L623.333 95.8335Z" fill="white"/>
<path d="M673.533 86.4665C672.558 85.4915 671.283 84.9998 670 84.9998V89.9998L666.467 93.5332C668.417 95.4832 671.583 95.4832 673.542 93.5332C675.492 91.5832 675.492 88.4165 673.533 86.4665ZM670 81.6665C665.4 81.6665 661.667 85.3998 661.667 89.9998C661.667 94.5998 665.4 98.3332 670 98.3332C674.6 98.3332 678.333 94.5998 678.333 89.9998C678.333 85.3998 674.6 81.6665 670 81.6665ZM670 96.6665C666.317 96.6665 663.333 93.6832 663.333 89.9998C663.333 86.3165 666.317 83.3332 670 83.3332C673.683 83.3332 676.667 86.3165 676.667 89.9998C676.667 93.6832 673.683 96.6665 670 96.6665Z" fill="white"/>
<path d="M726.167 82.5H717.833C716.917 82.5 716.175 83.25 716.175 84.1667L716.167 97.5L722 95L727.833 97.5V84.1667C727.833 83.25 727.083 82.5 726.167 82.5Z" fill="white"/>
<path d="M182.625 93.5H182.033L181.823 93.2975C182.557 92.4425 183 91.3325 183 90.125C183 87.4325 180.818 85.25 178.125 85.25C175.433 85.25 173.25 87.4325 173.25 90.125C173.25 92.8175 175.433 95 178.125 95C179.332 95 180.442 94.5575 181.297 93.8225L181.5 94.0325V94.625L185.25 98.3675L186.368 97.25L182.625 93.5ZM178.125 93.5C176.257 93.5 174.75 91.9925 174.75 90.125C174.75 88.2575 176.257 86.75 178.125 86.75C179.992 86.75 181.5 88.2575 181.5 90.125C181.5 91.9925 179.992 93.5 178.125 93.5Z" fill="#1A254C"/>
<path d="M133.41 52.59L131.12 50.295L128.8 48L133.41 43.41L132.5 42.5L127 48L132.5 53.5L133.41 52.59Z" fill="white"/>
<path d="M151.59 43.41L153.88 45.705L156.2 48L151.59 52.59L152.5 53.5L158 48L152.5 42.5L151.59 43.41Z" fill="white"/>
</svg>
